<svg width="219" height="60" viewBox="0 0 219 60" fill="none" xmlns="http://www.w3.org/2000/svg">
<path fill-rule="evenodd" clip-rule="evenodd" d="M2.26375 10.3819L13.5936 21.708C13.5951 21.8869 13.5987 22.0689 13.6061 22.2562V36.7718C13.6061 36.7718 12.6627 43.3697 21.1532 42.9927H35.3039V56.5657H13.2288C13.2288 56.5657 0.681786 57.5079 0.0212442 43.5582V13.7731C0.0212442 13.7731 -0.169951 11.4505 0.594824 8.71362L2.26375 10.3819Z" fill="#0E4F68"/>
<path fill-rule="evenodd" clip-rule="evenodd" d="M56.6247 35.0749H42.4737V21.6907C42.4737 21.6907 43.5116 13.8675 34.7381 13.7731H20.5853C20.5853 13.7731 20.0469 13.7046 19.2693 13.7904L6.72733 1.25291C8.39059 0.498555 10.4604 0.0289095 13.04 0.0116366H43.2284C43.2284 0.0116366 56.8136 -0.930929 56.6247 14.1502C56.4383 29.0463 56.6247 35.0749 56.6247 35.0749Z" fill="#0E4F68"/>
<path fill-rule="evenodd" clip-rule="evenodd" d="M30.5872 21.5022C30.5872 21.5022 35.2098 20.8422 35.1154 26.5921C35.1154 26.5921 34.5493 40.9191 48.323 42.8042L52.8512 42.9927C52.8512 42.9927 57.002 42.9927 56.6247 47.14V53.5495C56.6247 53.5495 57.1906 57.1312 52.8512 56.9427H45.8699C45.8699 56.9427 42.4737 57.6968 42.4737 53.9265V48.4593C42.4737 48.4593 41.5305 39.0339 30.3984 35.6407H24.7379C24.7379 35.6407 21.0588 36.1118 20.9644 32.813V25.6495C20.9644 25.6495 20.1153 21.0311 25.8702 21.5022H30.5872Z" fill="#C58E54"/>
<path d="M80.132 9.896L78.754 3.377C79.443 3.218 80.185 3.112 80.874 3.059C81.616 2.953 82.358 2.953 83.047 2.9C91.845 2.9 97.463 7.829 99.954 14.083C100.908 16.468 101.385 18.959 101.385 21.556C101.385 24.1 100.908 26.644 99.954 29.029C99.318 30.672 98.417 32.262 97.251 33.693L103.717 40.159H94.23L92.11 38.039C89.619 39.364 86.598 40.159 83.047 40.159C77.482 40.159 73.136 38.145 70.062 35.018C68.313 33.216 66.935 31.096 66.034 28.711C65.186 26.432 64.709 23.994 64.709 21.556C64.709 16.574 66.564 11.539 70.168 7.935L74.832 12.705C72.553 14.984 71.44 18.217 71.44 21.556C71.44 23.199 71.705 24.842 72.288 26.379C72.871 27.863 73.719 29.188 74.779 30.301C76.687 32.209 79.443 33.428 83.047 33.428C84.372 33.481 85.697 33.269 86.969 32.898L81.722 27.651L86.439 22.881L92.481 28.923C93.011 28.181 93.435 27.386 93.753 26.538C94.389 24.948 94.707 23.252 94.707 21.556C94.707 19.807 94.389 18.111 93.753 16.521C92.216 12.652 88.665 9.631 83.047 9.631C82.464 9.631 81.934 9.631 81.51 9.684C81.086 9.737 80.609 9.79 80.132 9.896ZM119.124 14.083H112.446V2.953H134.388C137.25 2.953 140.006 4.066 142.02 6.08C144.034 8.094 145.2 10.85 145.2 13.712V14.083C145.2 16.097 144.617 18.005 143.61 19.701C144.352 20.178 145.094 20.708 145.73 21.344C147.744 23.358 148.91 26.114 148.91 28.976V29.347C148.91 32.209 147.744 34.965 145.73 36.979C143.716 38.993 140.96 40.159 138.098 40.159H112.393V18.164H134.388C135.448 18.164 136.508 17.74 137.25 16.998C138.045 16.203 138.469 15.196 138.469 14.083V13.712C138.469 12.652 138.045 11.592 137.25 10.85C136.508 10.055 135.448 9.631 134.388 9.631H119.124V14.083ZM138.098 24.895H119.124V33.428H138.098C139.211 33.428 140.218 33.004 141.013 32.262C141.755 31.467 142.179 30.46 142.179 29.347V28.976C142.179 27.916 141.755 26.856 141.013 26.114C140.218 25.319 139.158 24.895 138.098 24.895ZM165.069 40.159H158.391V2.9H165.069V40.159ZM189.586 24.895H185.982C183.067 24.895 180.258 23.729 178.191 21.662C176.124 19.595 175.011 16.839 175.011 13.924C175.011 11.009 176.124 8.2 178.191 6.133C180.258 4.066 183.067 2.9 185.982 2.9H200.504C203.419 2.953 206.175 4.066 208.242 6.133C210.309 8.2 211.475 11.009 211.475 13.924H204.744C204.744 12.758 204.32 11.698 203.525 10.903C202.677 10.055 201.617 9.631 200.504 9.631H185.982C184.816 9.631 183.756 10.055 182.961 10.903C182.113 11.698 181.689 12.758 181.689 13.924C181.689 15.037 182.113 16.15 182.961 16.945C183.756 17.74 184.816 18.164 185.982 18.164H189.586V24.895ZM175.011 29.188H181.689C181.689 31.52 183.597 33.428 185.982 33.428H200.504C202.836 33.428 204.744 31.52 204.744 29.188C204.744 26.803 202.836 24.895 200.504 24.895H196.847V18.164H200.504C203.419 18.164 206.175 19.33 208.242 21.397C211.369 24.524 212.323 29.294 210.627 33.375C208.931 37.456 204.903 40.159 200.504 40.159H185.982C179.887 40.159 175.011 35.23 175.011 29.188Z" fill="#0B4E68"/>
<path d="M69.6826 53.405H71.0349L72.1684 54.8965L72.4667 55.2942L74.157 57.5413H72.8047L71.6911 56.0499L71.4127 55.672L69.6826 53.405ZM74.5746 51.4959C74.5746 52.5697 74.3807 53.4978 73.993 54.28C73.6052 55.0622 73.0732 55.6654 72.3971 56.0896C71.7209 56.5139 70.9487 56.726 70.0803 56.726C69.2119 56.726 68.4397 56.5139 67.7635 56.0896C67.0874 55.6654 66.5555 55.0622 66.1677 54.28C65.7799 53.4978 65.586 52.5697 65.586 51.4959C65.586 50.422 65.7799 49.494 66.1677 48.7118C66.5555 47.9296 67.0874 47.3264 67.7635 46.9021C68.4397 46.4779 69.2119 46.2658 70.0803 46.2658C70.9487 46.2658 71.7209 46.4779 72.3971 46.9021C73.0732 47.3264 73.6052 47.9296 73.993 48.7118C74.3807 49.494 74.5746 50.422 74.5746 51.4959ZM73.3814 51.4959C73.3814 50.6143 73.234 49.8702 72.939 49.2636C72.6473 48.6571 72.2512 48.1981 71.7508 47.8865C71.2536 47.575 70.6968 47.4192 70.0803 47.4192C69.4638 47.4192 68.9054 47.575 68.4049 47.8865C67.9077 48.1981 67.5117 48.6571 67.2167 49.2636C66.925 49.8702 66.7792 50.6143 66.7792 51.4959C66.7792 52.3775 66.925 53.1216 67.2167 53.7281C67.5117 54.3347 67.9077 54.7937 68.4049 55.1053C68.9054 55.4168 69.4638 55.5726 70.0803 55.5726C70.6968 55.5726 71.2536 55.4168 71.7508 55.1053C72.2512 54.7937 72.6473 54.3347 72.939 53.7281C73.234 53.1216 73.3814 52.3775 73.3814 51.4959ZM81.3012 53.4646V48.9504H82.4745V56.5868H81.3012V55.2942H81.2216C81.0427 55.682 80.7643 56.0117 80.3864 56.2835C80.0086 56.552 79.5313 56.6862 78.9546 56.6862C78.4773 56.6862 78.0531 56.5818 77.6819 56.373C77.3107 56.1609 77.019 55.8427 76.8069 55.4185C76.5947 54.9909 76.4887 54.4523 76.4887 53.8027V48.9504H77.662V53.7232C77.662 54.28 77.8178 54.7241 78.1293 55.0555C78.4442 55.387 78.8452 55.5527 79.3324 55.5527C79.6241 55.5527 79.9207 55.4781 80.2224 55.329C80.5273 55.1798 80.7825 54.9511 80.988 54.6429C81.1968 54.3347 81.3012 53.9419 81.3012 53.4646ZM84.6235 56.5868V48.9504H85.7968V56.5868H84.6235ZM85.22 47.6777C84.9914 47.6777 84.7941 47.5998 84.6284 47.444C84.466 47.2883 84.3848 47.101 84.3848 46.8822C84.3848 46.6635 84.466 46.4762 84.6284 46.3205C84.7941 46.1647 84.9914 46.0868 85.22 46.0868C85.4487 46.0868 85.6443 46.1647 85.8067 46.3205C85.9724 46.4762 86.0553 46.6635 86.0553 46.8822C86.0553 47.101 85.9724 47.2883 85.8067 47.444C85.6443 47.5998 85.4487 47.6777 85.22 47.6777ZM91.048 56.7459C90.3321 56.7459 89.7156 56.5768 89.1986 56.2388C88.6815 55.9007 88.2838 55.435 88.0054 54.8418C87.727 54.2485 87.5878 53.5707 87.5878 52.8084C87.5878 52.0328 87.7303 51.3484 88.0153 50.7551C88.3037 50.1585 88.7047 49.6929 89.2184 49.3581C89.7355 49.02 90.3387 48.851 91.0281 48.851C91.565 48.851 92.0489 48.9504 92.4798 49.1493C92.9107 49.3482 93.2637 49.6266 93.5388 49.9845C93.8139 50.3425 93.9845 50.7601 94.0508 51.2374H92.8775C92.7881 50.8893 92.5892 50.5811 92.2809 50.3126C91.976 50.0409 91.565 49.905 91.048 49.905C90.5906 49.905 90.1896 50.0243 89.8449 50.2629C89.5035 50.4983 89.2367 50.8313 89.0444 51.2622C88.8555 51.6898 88.7611 52.1919 88.7611 52.7686C88.7611 53.3586 88.8539 53.8723 89.0395 54.3098C89.2284 54.7473 89.4935 55.087 89.8349 55.329C90.1796 55.5709 90.584 55.6919 91.048 55.6919C91.3529 55.6919 91.6297 55.6389 91.8782 55.5328C92.1268 55.4268 92.3373 55.2743 92.5096 55.0754C92.682 54.8766 92.8046 54.6379 92.8775 54.3595H94.0508C93.9845 54.8103 93.8205 55.2163 93.5586 55.5776C93.3001 55.9355 92.9571 56.2206 92.5295 56.4327C92.1053 56.6415 91.6114 56.7459 91.048 56.7459ZM96.8598 53.8027L96.8399 52.351H97.0785L100.419 48.9504H101.871L98.3115 52.5499H98.2121L96.8598 53.8027ZM95.766 56.5868V46.405H96.9393V56.5868H95.766ZM100.618 56.5868L97.6354 52.8084L98.4706 51.993L102.11 56.5868H100.618ZM103.54 56.5868V46.405H104.714V50.1635H104.813C104.899 50.0309 105.019 49.8619 105.171 49.6564C105.327 49.4476 105.549 49.262 105.837 49.0996C106.129 48.9339 106.523 48.851 107.02 48.851C107.663 48.851 108.23 49.0117 108.721 49.3332C109.211 49.6547 109.594 50.1105 109.869 50.7004C110.144 51.2904 110.282 51.9864 110.282 52.7885C110.282 53.5972 110.144 54.2982 109.869 54.8915C109.594 55.4814 109.213 55.9388 108.726 56.2636C108.239 56.5851 107.677 56.7459 107.04 56.7459C106.55 56.7459 106.157 56.6647 105.862 56.5023C105.567 56.3366 105.34 56.1493 105.181 55.9405C105.022 55.7284 104.899 55.5527 104.813 55.4135H104.674V56.5868H103.54ZM104.694 52.7686C104.694 53.3453 104.778 53.8541 104.947 54.2949C105.116 54.7324 105.363 55.0754 105.688 55.324C106.013 55.5693 106.411 55.6919 106.881 55.6919C107.372 55.6919 107.781 55.5626 108.109 55.3041C108.441 55.0423 108.689 54.691 108.855 54.2501C109.024 53.806 109.109 53.3122 109.109 52.7686C109.109 52.2317 109.026 51.7478 108.86 51.3169C108.698 50.8827 108.451 50.5397 108.119 50.2878C107.791 50.0326 107.378 49.905 106.881 49.905C106.404 49.905 106.003 50.0259 105.678 50.2679C105.353 50.5065 105.108 50.8413 104.942 51.2722C104.777 51.6997 104.694 52.1985 104.694 52.7686ZM115.179 56.7459C114.489 56.7459 113.885 56.5818 113.364 56.2537C112.847 55.9256 112.443 55.4665 112.151 54.8766C111.863 54.2866 111.719 53.5972 111.719 52.8084C111.719 52.0129 111.863 51.3186 112.151 50.7253C112.443 50.132 112.847 49.6713 113.364 49.3432C113.885 49.0151 114.489 48.851 115.179 48.851C115.868 48.851 116.471 49.0151 116.989 49.3432C117.509 49.6713 117.913 50.132 118.202 50.7253C118.493 51.3186 118.639 52.0129 118.639 52.8084C118.639 53.5972 118.493 54.2866 118.202 54.8766C117.913 55.4665 117.509 55.9256 116.989 56.2537C116.471 56.5818 115.868 56.7459 115.179 56.7459ZM115.179 55.6919C115.703 55.6919 116.133 55.5577 116.471 55.2892C116.81 55.0207 117.06 54.6678 117.222 54.2303C117.385 53.7928 117.466 53.3188 117.466 52.8084C117.466 52.298 117.385 51.8224 117.222 51.3815C117.06 50.9407 116.81 50.5844 116.471 50.3126C116.133 50.0409 115.703 49.905 115.179 49.905C114.655 49.905 114.224 50.0409 113.886 50.3126C113.548 50.5844 113.298 50.9407 113.136 51.3815C112.973 51.8224 112.892 52.298 112.892 52.8084C112.892 53.3188 112.973 53.7928 113.136 54.2303C113.298 54.6678 113.548 55.0207 113.886 55.2892C114.224 55.5577 114.655 55.6919 115.179 55.6919ZM123.532 56.7459C122.843 56.7459 122.238 56.5818 121.718 56.2537C121.201 55.9256 120.796 55.4665 120.505 54.8766C120.216 54.2866 120.072 53.5972 120.072 52.8084C120.072 52.0129 120.216 51.3186 120.505 50.7253C120.796 50.132 121.201 49.6713 121.718 49.3432C122.238 49.0151 122.843 48.851 123.532 48.851C124.222 48.851 124.825 49.0151 125.342 49.3432C125.862 49.6713 126.267 50.132 126.555 50.7253C126.847 51.3186 126.993 52.0129 126.993 52.8084C126.993 53.5972 126.847 54.2866 126.555 54.8766C126.267 55.4665 125.862 55.9256 125.342 56.2537C124.825 56.5818 124.222 56.7459 123.532 56.7459ZM123.532 55.6919C124.056 55.6919 124.487 55.5577 124.825 55.2892C125.163 55.0207 125.413 54.6678 125.576 54.2303C125.738 53.7928 125.819 53.3188 125.819 52.8084C125.819 52.298 125.738 51.8224 125.576 51.3815C125.413 50.9407 125.163 50.5844 124.825 50.3126C124.487 50.0409 124.056 49.905 123.532 49.905C123.009 49.905 122.578 50.0409 122.24 50.3126C121.902 50.5844 121.651 50.9407 121.489 51.3815C121.327 51.8224 121.245 52.298 121.245 52.8084C121.245 53.3188 121.327 53.7928 121.489 54.2303C121.651 54.6678 121.902 55.0207 122.24 55.2892C122.578 55.5577 123.009 55.6919 123.532 55.6919ZM129.877 53.8027L129.857 52.351H130.096L133.437 48.9504H134.889L131.329 52.5499H131.23L129.877 53.8027ZM128.784 56.5868V46.405H129.957V56.5868H128.784ZM133.636 56.5868L130.653 52.8084L131.488 51.993L135.127 56.5868H133.636ZM141.728 46.405V56.5868H140.495V46.405H141.728ZM145.215 51.993V56.5868H144.041V48.9504H145.175V50.1436H145.274C145.453 49.7558 145.725 49.4443 146.09 49.209C146.454 48.9703 146.925 48.851 147.502 48.851C148.019 48.851 148.471 48.9571 148.859 49.1692C149.247 49.378 149.548 49.6962 149.764 50.1237C149.979 50.548 150.087 51.0849 150.087 51.7345V56.5868H148.914V51.8141C148.914 51.2142 148.758 50.7468 148.446 50.4121C148.135 50.074 147.707 49.905 147.164 49.905C146.789 49.905 146.454 49.9862 146.159 50.1486C145.868 50.311 145.637 50.548 145.468 50.8595C145.299 51.1711 145.215 51.5489 145.215 51.993ZM155.552 48.9504V49.9447H151.595V48.9504H155.552ZM152.748 47.1209H153.921V54.3993C153.921 54.7307 153.969 54.9793 154.065 55.145C154.165 55.3074 154.291 55.4168 154.443 55.4732C154.599 55.5262 154.763 55.5527 154.935 55.5527C155.065 55.5527 155.171 55.5461 155.254 55.5328C155.336 55.5162 155.403 55.503 155.452 55.493L155.691 56.547C155.612 56.5768 155.501 56.6067 155.358 56.6365C155.215 56.6697 155.035 56.6862 154.816 56.6862C154.485 56.6862 154.16 56.615 153.842 56.4724C153.527 56.3299 153.265 56.1128 153.056 55.8212C152.851 55.5295 152.748 55.1616 152.748 54.7175V47.1209ZM160.436 56.7459C159.701 56.7459 159.066 56.5835 158.532 56.2587C158.002 55.9305 157.593 55.4732 157.304 54.8865C157.019 54.2965 156.877 53.6105 156.877 52.8283C156.877 52.0461 157.019 51.3567 157.304 50.7601C157.593 50.1602 157.994 49.6929 158.508 49.3581C159.025 49.02 159.628 48.851 160.317 48.851C160.715 48.851 161.108 48.9173 161.495 49.0499C161.883 49.1824 162.236 49.3979 162.554 49.6962C162.873 49.9911 163.126 50.3822 163.315 50.8695C163.504 51.3567 163.598 51.9566 163.598 52.6692V53.1663H157.712V52.1521H162.405C162.405 51.7213 162.319 51.3368 162.147 50.9987C161.978 50.6607 161.736 50.3938 161.421 50.1983C161.109 50.0027 160.741 49.905 160.317 49.905C159.85 49.905 159.445 50.021 159.104 50.253C158.766 50.4817 158.506 50.78 158.324 51.1479C158.141 51.5158 158.05 51.9102 158.05 52.3311V53.0072C158.05 53.584 158.15 54.0728 158.348 54.4739C158.551 54.8716 158.831 55.1749 159.189 55.3837C159.547 55.5892 159.963 55.6919 160.436 55.6919C160.745 55.6919 161.023 55.6488 161.272 55.5626C161.524 55.4732 161.741 55.3406 161.923 55.1649C162.105 54.9859 162.246 54.7639 162.346 54.4987L163.479 54.8169C163.36 55.2014 163.159 55.5394 162.878 55.8311C162.596 56.1195 162.248 56.3448 161.834 56.5072C161.419 56.6663 160.954 56.7459 160.436 56.7459ZM168.466 59.6095C167.899 59.6095 167.412 59.5366 167.004 59.3908C166.596 59.2483 166.257 59.0593 165.985 58.824C165.716 58.592 165.503 58.3434 165.343 58.0783L166.278 57.422C166.384 57.5612 166.518 57.7203 166.681 57.8993C166.843 58.0816 167.065 58.239 167.347 58.3716C167.632 58.5075 168.005 58.5754 168.466 58.5754C169.082 58.5754 169.591 58.4263 169.992 58.128C170.393 57.8297 170.593 57.3624 170.593 56.726V55.1749H170.494C170.408 55.3141 170.285 55.4864 170.126 55.6919C169.97 55.8941 169.745 56.0747 169.45 56.2338C169.158 56.3896 168.764 56.4675 168.267 56.4675C167.65 56.4675 167.097 56.3216 166.606 56.03C166.119 55.7383 165.733 55.3141 165.448 54.7572C165.166 54.2004 165.025 53.5243 165.025 52.7288C165.025 51.9466 165.163 51.2655 165.438 50.6855C165.713 50.1022 166.096 49.6514 166.586 49.3332C167.077 49.0117 167.644 48.851 168.287 48.851C168.784 48.851 169.178 48.9339 169.47 49.0996C169.765 49.262 169.99 49.4476 170.146 49.6564C170.305 49.8619 170.428 50.0309 170.514 50.1635H170.633V48.9504H171.767V56.8055C171.767 57.4618 171.618 57.9954 171.319 58.4064C171.024 58.8207 170.627 59.124 170.126 59.3162C169.629 59.5117 169.075 59.6095 168.466 59.6095ZM168.426 55.4135C168.896 55.4135 169.294 55.3058 169.619 55.0903C169.944 54.8749 170.191 54.565 170.36 54.1607C170.529 53.7563 170.613 53.2724 170.613 52.709C170.613 52.1588 170.53 51.6732 170.365 51.2523C170.199 50.8313 169.954 50.5016 169.629 50.2629C169.304 50.0243 168.903 49.905 168.426 49.905C167.929 49.905 167.514 50.0309 167.183 50.2828C166.855 50.5347 166.608 50.8728 166.442 51.297C166.28 51.7213 166.199 52.1919 166.199 52.709C166.199 53.2393 166.281 53.7082 166.447 54.1159C166.616 54.5203 166.865 54.8384 167.193 55.0705C167.524 55.2991 167.935 55.4135 168.426 55.4135ZM173.914 56.5868V48.9504H175.048V50.1038H175.128C175.267 49.726 175.519 49.4194 175.883 49.1841C176.248 48.9488 176.659 48.8311 177.116 48.8311C177.202 48.8311 177.31 48.8328 177.439 48.8361C177.569 48.8394 177.666 48.8444 177.733 48.851V50.0442C177.693 50.0342 177.602 50.0193 177.459 49.9994C177.32 49.9762 177.173 49.9646 177.017 49.9646C176.646 49.9646 176.314 50.0425 176.022 50.1983C175.734 50.3508 175.505 50.5629 175.336 50.8347C175.171 51.1031 175.088 51.4097 175.088 51.7544V56.5868H173.914ZM181.371 56.7658C180.887 56.7658 180.448 56.6746 180.053 56.4923C179.659 56.3067 179.346 56.0399 179.114 55.6919C178.882 55.3406 178.766 54.9163 178.766 54.4192C178.766 53.9817 178.852 53.627 179.024 53.3553C179.196 53.0802 179.427 52.8647 179.715 52.709C180.003 52.5532 180.322 52.4372 180.67 52.3609C181.021 52.2814 181.374 52.2184 181.729 52.172C182.193 52.1124 182.569 52.0676 182.857 52.0378C183.149 52.0046 183.361 51.95 183.493 51.8737C183.629 51.7975 183.697 51.6649 183.697 51.476V51.4362C183.697 50.9457 183.563 50.5645 183.295 50.2928C183.029 50.021 182.627 49.8851 182.087 49.8851C181.526 49.8851 181.087 50.0077 180.769 50.253C180.451 50.4983 180.227 50.7601 180.098 51.0385L178.984 50.6408C179.183 50.1768 179.448 49.8155 179.78 49.557C180.114 49.2951 180.479 49.1128 180.873 49.0101C181.271 48.904 181.662 48.851 182.047 48.851C182.292 48.851 182.574 48.8808 182.892 48.9405C183.213 48.9968 183.523 49.1145 183.822 49.2935C184.123 49.4724 184.373 49.7426 184.572 50.1038C184.771 50.4651 184.871 50.949 184.871 51.5555V56.5868H183.697V55.5527H183.638C183.558 55.7184 183.426 55.8957 183.24 56.0847C183.054 56.2736 182.807 56.4343 182.499 56.5669C182.191 56.6995 181.815 56.7658 181.371 56.7658ZM181.55 55.7118C182.014 55.7118 182.405 55.6206 182.723 55.4384C183.044 55.2561 183.286 55.0207 183.449 54.7324C183.614 54.444 183.697 54.1408 183.697 53.8226V52.7487C183.648 52.8084 183.538 52.8631 183.369 52.9128C183.203 52.9592 183.011 53.0006 182.792 53.0371C182.577 53.0702 182.367 53.1 182.161 53.1266C181.959 53.1498 181.795 53.1697 181.669 53.1862C181.364 53.226 181.079 53.2906 180.814 53.3801C180.552 53.4663 180.34 53.5972 180.177 53.7729C180.018 53.9452 179.939 54.1805 179.939 54.4788C179.939 54.8865 180.09 55.1947 180.391 55.4036C180.696 55.609 181.082 55.7118 181.55 55.7118ZM190.333 48.9504V49.9447H186.376V48.9504H190.333ZM187.529 47.1209H188.702V54.3993C188.702 54.7307 188.751 54.9793 188.847 55.145C188.946 55.3074 189.072 55.4168 189.224 55.4732C189.38 55.5262 189.544 55.5527 189.717 55.5527C189.846 55.5527 189.952 55.5461 190.035 55.5328C190.118 55.5162 190.184 55.503 190.234 55.493L190.472 56.547C190.393 56.5768 190.282 56.6067 190.139 56.6365C189.997 56.6697 189.816 56.6862 189.597 56.6862C189.266 56.6862 188.941 56.615 188.623 56.4724C188.308 56.3299 188.046 56.1128 187.837 55.8212C187.632 55.5295 187.529 55.1616 187.529 54.7175V47.1209ZM192.098 56.5868V48.9504H193.271V56.5868H192.098ZM192.695 47.6777C192.466 47.6777 192.269 47.5998 192.103 47.444C191.941 47.2883 191.859 47.101 191.859 46.8822C191.859 46.6635 191.941 46.4762 192.103 46.3205C192.269 46.1647 192.466 46.0868 192.695 46.0868C192.923 46.0868 193.119 46.1647 193.281 46.3205C193.447 46.4762 193.53 46.6635 193.53 46.8822C193.53 47.101 193.447 47.2883 193.281 47.444C193.119 47.5998 192.923 47.6777 192.695 47.6777ZM198.523 56.7459C197.833 56.7459 197.228 56.5818 196.708 56.2537C196.191 55.9256 195.787 55.4665 195.495 54.8766C195.207 54.2866 195.062 53.5972 195.062 52.8084C195.062 52.0129 195.207 51.3186 195.495 50.7253C195.787 50.132 196.191 49.6713 196.708 49.3432C197.228 49.0151 197.833 48.851 198.523 48.851C199.212 48.851 199.815 49.0151 200.332 49.3432C200.853 49.6713 201.257 50.132 201.545 50.7253C201.837 51.3186 201.983 52.0129 201.983 52.8084C201.983 53.5972 201.837 54.2866 201.545 54.8766C201.257 55.4665 200.853 55.9256 200.332 56.2537C199.815 56.5818 199.212 56.7459 198.523 56.7459ZM198.523 55.6919C199.046 55.6919 199.477 55.5577 199.815 55.2892C200.153 55.0207 200.404 54.6678 200.566 54.2303C200.728 53.7928 200.81 53.3188 200.81 52.8084C200.81 52.298 200.728 51.8224 200.566 51.3815C200.404 50.9407 200.153 50.5844 199.815 50.3126C199.477 50.0409 199.046 49.905 198.523 49.905C197.999 49.905 197.568 50.0409 197.23 50.3126C196.892 50.5844 196.642 50.9407 196.479 51.3815C196.317 51.8224 196.236 52.298 196.236 52.8084C196.236 53.3188 196.317 53.7928 196.479 54.2303C196.642 54.6678 196.892 55.0207 197.23 55.2892C197.568 55.5577 197.999 55.6919 198.523 55.6919ZM204.947 51.993V56.5868H203.774V48.9504H204.907V50.1436H205.007C205.186 49.7558 205.458 49.4443 205.822 49.209C206.187 48.9703 206.657 48.851 207.234 48.851C207.751 48.851 208.204 48.9571 208.591 49.1692C208.979 49.378 209.281 49.6962 209.496 50.1237C209.712 50.548 209.819 51.0849 209.819 51.7345V56.5868H208.646V51.8141C208.646 51.2142 208.49 50.7468 208.179 50.4121C207.867 50.074 207.44 49.905 206.896 49.905C206.521 49.905 206.187 49.9862 205.892 50.1486C205.6 50.311 205.37 50.548 205.201 50.8595C205.032 51.1711 204.947 51.5489 204.947 51.993Z" fill="#C58E54"/>
</svg>
